<svg width="8" height="8" viewBox="0 0 8 8" fill="none" xmlns="http://www.w3.org/2000/svg">
<path d="M5.71755 5.03145H5.3562L5.22813 4.90795C5.67639 4.38651 5.94625 3.70955 5.94625 2.97313C5.94625 1.33105 4.61521 0 2.97313 0C1.33105 0 0 1.33105 0 2.97313C0 4.61521 1.33105 5.94625 2.97313 5.94625C3.70955 5.94625 4.38651 5.67639 4.90795 5.22813L5.03145 5.3562V5.71755L7.31847 8L8 7.31847L5.71755 5.03145ZM2.97313 5.03145C1.83419 5.03145 0.914808 4.11206 0.914808 2.97313C0.914808 1.83419 1.83419 0.914808 2.97313 0.914808C4.11206 0.914808 5.03145 1.83419 5.03145 2.97313C5.03145 4.11206 4.11206 5.03145 2.97313 5.03145Z" fill="black"/>
</svg>
